<svg width="48" height="48" viewBox="0 0 48 48" fill="none" xmlns="http://www.w3.org/2000/svg">
<path fill-rule="evenodd" clip-rule="evenodd" d="M20.3999 6C15.7608 6 12 9.76077 12 14.3999C12 19.0391 15.7608 22.7999 20.3999 22.7999C25.0391 22.7999 28.7999 19.0391 28.7999 14.3999C28.7999 9.76077 25.0391 6 20.3999 6ZM14.4 14.3999C14.4 11.0862 17.0862 8.39998 20.3999 8.39998C23.7137 8.39998 26.3999 11.0862 26.3999 14.3999C26.3999 17.7137 23.7137 20.3999 20.3999 20.3999C17.0862 20.3999 14.4 17.7137 14.4 14.3999Z" fill="white"/>
<path d="M16.5179 25.2002C10.7082 25.2002 6 29.909 6 35.7181C6 39.1867 8.81278 42.0001 12.2819 42.0001H17.3999C17.7182 42.0001 18.0234 41.8736 18.2484 41.6486C18.4735 41.4235 18.5999 41.1183 18.5999 40.8001C18.5999 40.4818 18.4735 40.1766 18.2484 39.9515C18.0234 39.7265 17.7182 39.6001 17.3999 39.6001H12.2819C11.2524 39.6001 10.265 39.1911 9.53698 38.4631C8.80897 37.7351 8.39998 36.7477 8.39998 35.7181C8.39998 31.2337 12.0342 27.6002 16.5179 27.6002H24.2819C28.7662 27.6002 32.3998 31.2343 32.3998 35.7181C32.3998 36.7477 31.9908 37.7351 31.2628 38.4631C30.5348 39.1911 29.5474 39.6001 28.5178 39.6001H23.3999C23.0816 39.6001 22.7764 39.7265 22.5513 39.9515C22.3263 40.1766 22.1999 40.4818 22.1999 40.8001C22.1999 41.1183 22.3263 41.4235 22.5513 41.6486C22.7764 41.8736 23.0816 42.0001 23.3999 42.0001H28.5178C31.9864 42.0001 34.7998 39.1873 34.7998 35.7181C34.7998 29.9084 30.091 25.2002 24.2819 25.2002H16.5179Z" fill="white"/>
<path d="M36.5311 26.3275C36.3831 26.2734 36.2472 26.1907 36.1311 26.0841C36.0151 25.9775 35.9205 25.8491 35.8541 25.7062C35.7877 25.5632 35.75 25.4087 35.7434 25.2512C35.7367 25.0938 35.7611 24.9365 35.8151 24.7885C35.8692 24.6405 35.9519 24.5046 36.0585 24.3885L38.0685 22.2003H29.9998C29.6815 22.2003 29.3763 22.0739 29.1513 21.8488C28.9262 21.6238 28.7998 21.3186 28.7998 21.0003C28.7998 20.6821 28.9262 20.3768 29.1513 20.1518C29.3763 19.9268 29.6815 19.8003 29.9998 19.8003H38.0685L36.0585 17.6122C35.8432 17.3777 35.7299 17.0673 35.7435 16.7492C35.7502 16.5918 35.7878 16.4371 35.8543 16.2942C35.9208 16.1513 36.0147 16.0229 36.1308 15.9163C36.2469 15.8097 36.3829 15.727 36.531 15.6729C36.679 15.6188 36.8363 15.5945 36.9938 15.6012C37.1512 15.6079 37.3059 15.6456 37.4488 15.712C37.5917 15.7785 37.7201 15.8725 37.8267 15.9886L41.6835 20.1885C41.8869 20.41 41.9998 20.6997 41.9998 21.0003C41.9998 21.301 41.8869 21.5907 41.6835 21.8121L37.8267 26.0121C37.7201 26.1282 37.5917 26.2221 37.4488 26.2885C37.3059 26.355 37.1513 26.3926 36.9938 26.3993C36.8364 26.406 36.6792 26.3816 36.5311 26.3275Z" fill="#FFCC00"/>
</svg>
