<svg width="40" height="44" viewBox="0 0 40 44" fill="none" xmlns="http://www.w3.org/2000/svg">
<path fill-rule="evenodd" clip-rule="evenodd" d="M13.4269 5.65038L19.02 0.383639C19.2817 0.137565 19.6316 0 19.9957 0C20.3599 0 20.7097 0.137564 20.9714 0.383637L26.5646 5.6502C26.5705 5.655 26.5761 5.66004 26.5814 5.66532C26.8465 5.91897 26.9971 6.26458 27 6.62612C27.0029 6.98766 26.8579 7.33552 26.5969 7.59316C26.336 7.8508 25.9804 7.99713 25.6084 7.99996C25.2365 8.00278 24.8786 7.86187 24.6135 7.60822L19.9958 3.261L15.3782 7.60822C15.114 7.85713 14.7597 7.99506 14.3917 7.99225C14.0238 7.98945 13.6717 7.84612 13.4116 7.59322L13.3954 7.5775C13.2672 7.449 13.1663 7.2972 13.0985 7.13078C13.0307 6.96435 12.9973 6.78657 13.0002 6.60759C13.0031 6.42862 13.0423 6.25195 13.1155 6.08771C13.1887 5.92346 13.2945 5.77485 13.4269 5.65038Z" fill="white"/>
<path d="M11.0119 21.3199L11.0119 21.3199L11.0148 21.3181C16.5146 17.9565 23.4841 17.9565 28.9838 21.3181L28.9838 21.3181L28.9911 21.3225C29.1846 21.4385 29.4155 21.5731 29.6825 21.7259C30.8638 22.4118 32.5165 23.3747 33.6236 24.4854C34.3141 25.1793 34.8816 26.0091 34.9836 26.9646C35.0885 27.9496 34.6853 28.9338 33.7068 29.8894L33.7063 29.8899C31.8735 31.6825 29.7952 33.0001 27.165 33.0001H12.8337C10.2053 33.0001 8.12523 31.6826 6.29245 29.8919C5.31325 28.9339 4.91069 27.95 5.01672 26.9659L5.01683 26.9649C5.11883 26.0093 5.68446 25.1814 6.37666 24.4856C7.48234 23.3763 9.13657 22.4108 10.3185 21.7255C10.5808 21.5749 10.8145 21.4396 11.0119 21.3199Z" fill="#D7AF70" stroke="white" stroke-width="2"/>
<path d="M12.75 22C12.75 20.0772 13.5138 18.2331 14.8735 16.8735C16.2331 15.5138 18.0772 14.75 20 14.75C21.9228 14.75 23.7669 15.5138 25.1265 16.8735C26.4862 18.2331 27.25 20.0772 27.25 22C27.25 23.9228 26.4862 25.7669 25.1265 27.1265C23.7669 28.4862 21.9228 29.25 20 29.25C18.0772 29.25 16.2331 28.4862 14.8735 27.1265C13.5138 25.7669 12.75 23.9228 12.75 22Z" fill="white" stroke="white" stroke-width="1.5"/>
</svg>
