<svg width="166" height="144" viewBox="0 0 166 144" fill="none" xmlns="http://www.w3.org/2000/svg">
<path d="M135.9 20.4609C135.281 20.2914 134.621 20.3746 134.064 20.692C133.507 21.0094 133.099 21.5351 132.929 22.1534C132.76 22.7718 132.843 23.4321 133.161 23.9891C133.478 24.5462 134.004 24.9543 134.622 25.1238C150.931 29.5926 160.667 35.9348 160.667 42.0869V42.122C160.667 44.5858 159.029 48.424 151.226 52.714C145.07 56.0991 136.347 58.9995 125.903 61.1432C125.207 61.2856 124.504 61.425 123.793 61.5612C123.24 61.6671 122.742 61.9621 122.384 62.3955C122.026 62.8288 121.83 63.3734 121.83 63.9356V85.8962C117.776 85.1914 113.545 84.6033 109.192 84.1315L110.18 70.002C110.203 69.6854 110.162 69.3675 110.062 69.0665C109.961 68.7655 109.802 68.4873 109.594 68.2478C109.385 68.0083 109.132 67.8121 108.848 67.6705C108.564 67.5289 108.255 67.4447 107.938 67.4226C106.609 67.3307 105.452 68.3327 105.359 69.6646L104.042 88.4908C103.856 91.1305 101.639 93.1991 98.9967 93.1991H97.7112C97.1081 93.1992 96.5269 93.4247 96.0816 93.8313C95.6363 94.238 95.3591 94.7964 95.3045 95.3969L91.3793 138.534H74.6214L70.6975 95.3969C70.6428 94.7963 70.3655 94.2379 69.9202 93.8312C69.4748 93.4246 68.8935 93.1991 68.2905 93.1991H67.0052C64.3617 93.1991 62.1461 91.1305 61.9598 88.4946L59.3978 51.878C59.1639 48.5258 60.2982 45.3257 62.5892 42.8684C64.8805 40.4127 67.9911 39.0605 71.3484 39.0605H94.6522C98.0096 39.0605 101.12 40.4124 103.411 42.8684C105.704 45.3257 106.838 48.5258 106.604 51.8771L106.036 59.9879C106.014 60.3045 106.054 60.6223 106.155 60.9233C106.256 61.2243 106.415 61.5025 106.623 61.742C106.831 61.9815 107.084 62.1776 107.368 62.3192C107.653 62.4607 107.962 62.5449 108.278 62.567C109.606 62.6566 110.764 61.6569 110.857 60.325L111.425 52.2142C111.749 47.578 110.116 42.9706 106.946 39.5716C104.024 36.4408 99.9873 34.5436 95.7363 34.2668C99.7711 30.737 102.334 25.5669 102.368 19.8064C110.484 20.4548 118.251 21.5047 125.376 22.942C126.004 23.0685 126.657 22.9402 127.191 22.5855C127.724 22.2307 128.095 21.6785 128.222 21.0503C128.285 20.7392 128.286 20.4188 128.225 20.1073C128.164 19.7958 128.042 19.4994 127.867 19.2351C127.691 18.9707 127.465 18.7435 127.202 18.5665C126.938 18.3896 126.643 18.2663 126.331 18.2037C118.733 16.6704 110.435 15.5653 101.769 14.9108C99.6135 6.46999 91.8717 0.321777 83.0003 0.321777C74.129 0.321777 66.3884 6.46998 64.2347 14.9031C49.7578 15.9933 36.454 18.341 25.6407 21.779C9.19379 27.0084 0.5 34.0303 0.5 42.0869V110.659C0.5 117.486 6.99561 122.49 12.4442 125.487C19.4509 129.339 29.4286 132.576 41.2996 134.847C41.6492 134.914 42.0091 134.903 42.3539 134.814C42.6986 134.726 43.0195 134.563 43.2938 134.336C43.5682 134.109 43.7892 133.824 43.9408 133.502C44.0925 133.18 44.1711 132.828 44.171 132.472V115.463C44.171 114.129 43.0882 113.047 41.754 113.047C40.4198 113.047 39.337 114.129 39.337 115.463V129.523C29.2294 127.397 20.7803 124.554 14.7729 121.251C6.97112 116.961 5.334 113.123 5.334 110.66V51.8883C5.33529 51.8909 5.33787 51.8919 5.34045 51.8948C5.58569 52.13 5.83867 52.3589 6.09455 52.5844C6.12839 52.6147 6.16223 52.646 6.19768 52.675C6.44432 52.8898 6.69483 53.1005 6.9492 53.307L7.09003 53.4204C7.34312 53.6243 7.59954 53.8231 7.85929 54.0169C7.89989 54.0472 7.94103 54.0774 7.98271 54.1075C8.25261 54.3092 8.52583 54.5065 8.80224 54.6992C8.80482 54.7007 8.80729 54.7028 8.80965 54.7056C9.0868 54.8968 9.3646 55.0835 9.64303 55.2657C9.68085 55.2917 9.71952 55.3177 9.75905 55.3437C10.0267 55.5173 10.2944 55.6865 10.5621 55.8513C10.6103 55.8809 10.6585 55.9107 10.7068 55.9405C10.9737 56.1042 11.2405 56.2628 11.5048 56.4175C11.8158 56.5981 12.1288 56.7751 12.4439 56.9486C16.1664 58.9956 20.7274 60.869 25.9642 62.5154C27.7706 63.0813 29.5901 63.6042 31.4212 64.0839C32.6812 64.4154 33.9716 64.7344 35.2923 65.041C36.6365 65.3523 37.9848 65.646 39.3367 65.9221V105.796C39.3367 106.437 39.5914 107.052 40.0446 107.505C40.4979 107.959 41.1127 108.213 41.7537 108.213C42.3947 108.213 43.0095 107.959 43.4628 107.505C43.9161 107.052 44.1707 106.437 44.1707 105.796V90.8056C48.3202 90.0631 52.6657 89.4437 57.1484 88.9539C57.5464 93.744 61.3682 97.5455 66.0787 97.9886L70.0078 141.17C70.0625 141.771 70.3397 142.329 70.785 142.736C71.2302 143.142 71.8115 143.368 72.4145 143.368H93.5849C94.1879 143.368 94.7692 143.143 95.2146 142.736C95.6599 142.329 95.9372 141.771 95.9919 141.17L99.9203 97.9886C104.631 97.5445 108.452 93.7453 108.851 88.9539C113.335 89.4437 117.679 90.0631 121.83 90.8056V132.474C121.83 132.83 121.908 133.181 122.06 133.503C122.211 133.825 122.432 134.109 122.706 134.336C122.98 134.563 123.301 134.726 123.646 134.814C123.991 134.903 124.351 134.914 124.7 134.847C136.572 132.576 146.55 129.339 153.555 125.487C159.005 122.491 165.499 117.486 165.499 110.659V42.0869C165.501 33.3728 154.988 25.6929 135.9 20.4609ZM68.623 17.554C69.6614 10.4845 75.8425 5.15449 83.0003 5.15449C90.1582 5.15449 96.3389 10.4848 97.3802 17.5631C97.4833 18.2527 97.5362 18.9681 97.5362 19.6907C97.5362 27.7054 91.0154 34.2265 83.0003 34.2265C74.9852 34.2265 68.4645 27.7058 68.4645 19.6907C68.4645 18.9678 68.5173 18.253 68.623 17.554ZM42.2084 61.5612C30.8282 59.3846 21.3416 56.3244 14.7742 52.7127C6.97047 48.4227 5.334 44.5858 5.334 42.122V42.0866C5.334 36.5894 13.4725 30.7193 27.1047 26.3851C37.3367 23.1309 49.91 20.8853 63.634 19.7964C63.6643 25.5604 66.2286 30.7344 70.2656 34.2655C66.0133 34.5436 61.9763 36.4395 59.0556 39.5716C55.8858 42.9693 54.2531 47.578 54.5754 52.2142L56.8087 84.1315C52.4568 84.6033 48.2245 85.1914 44.171 85.8962V63.9356C44.1712 63.3734 43.9752 62.8286 43.617 62.3952C43.2588 61.9618 42.7607 61.6669 42.2084 61.5612ZM160.667 110.66C160.667 113.123 159.029 116.961 151.226 121.251C145.219 124.555 136.77 127.397 126.664 129.523V65.9224C137.674 63.6762 146.94 60.5873 153.557 56.9492C153.827 56.8003 154.101 56.6459 154.376 56.4858C154.417 56.4624 154.458 56.439 154.498 56.4156C154.761 56.2631 155.026 56.1046 155.291 55.9434L155.441 55.85C155.71 55.6854 155.976 55.5167 156.24 55.344C156.281 55.3189 156.32 55.2924 156.36 55.266C156.637 55.0849 156.914 54.8986 157.19 54.7072C157.192 54.7046 157.196 54.7021 157.2 54.6995C157.475 54.5066 157.748 54.3102 158.018 54.1104C158.06 54.0794 158.101 54.0484 158.143 54.0172C158.4 53.8232 158.656 53.6248 158.911 53.422C159.213 53.1794 159.511 52.9309 159.803 52.6766C160.093 52.4241 160.377 52.1652 160.656 51.8999C160.659 51.8963 160.664 51.8929 160.668 51.89V110.66H160.667Z" fill="white"/>
</svg>
