<svg width="120" height="120" viewBox="0 0 120 120" fill="none" xmlns="http://www.w3.org/2000/svg">
<path d="M-4509 -1171H5876V-1173H-4509V-1171ZM5877 -1170V5432H5879V-1170H5877ZM5876 5433H-4509V5435H5876V5433ZM-4510 5432V-1170H-4512V5432H-4510ZM-4509 5433C-4509.55 5433 -4510 5432.55 -4510 5432H-4512C-4512 5433.66 -4510.66 5435 -4509 5435V5433ZM5877 5432C5877 5432.55 5876.55 5433 5876 5433V5435C5877.66 5435 5879 5433.66 5879 5432H5877ZM5876 -1171C5876.55 -1171 5877 -1170.55 5877 -1170H5879C5879 -1171.66 5877.66 -1173 5876 -1173V-1171ZM-4509 -1173C-4510.66 -1173 -4512 -1171.66 -4512 -1170H-4510C-4510 -1170.55 -4509.55 -1171 -4509 -1171V-1173Z" fill="white" fill-opacity="0.1"/>
<path d="M80.7609 21.6716V37.3335L66.464 55.9886L50.8661 68.5951L39.2388 52.9991L40.8072 22.2536C40.8067 22.0144 40.8978 21.784 41.0617 21.6099C41.2257 21.4357 41.4501 21.3309 41.6889 21.317C43.165 21.2329 43.1006 20.5759 44.6294 20.5103C49.5264 20.3005 54.6801 20.1892 59.9997 20.1892C66.9803 20.1892 73.6748 20.3814 79.8789 20.7353C80.1177 20.7491 80.3422 20.8538 80.5063 21.0279C80.6703 21.2021 80.7614 21.4324 80.7609 21.6716Z" fill="#F6EDDE"/>
<path d="M32.911 47.4961V84.3574C32.9106 84.5924 32.8222 84.8186 32.6632 84.9915C32.5042 85.1645 32.2861 85.2715 32.052 85.2914C27.5801 85.6772 23.4645 86.1513 19.8047 86.7L17.0485 63.3586L23.7781 51.4887L32.911 47.4961Z" fill="#ECD8B9"/>
<path d="M32.9109 22.255V47.4963L17.0484 63.3588L14.6367 42.9541C14.6367 42.9541 4.725 34.608 2.19375 30.7267C1.81641 30.1478 1.75781 29.6674 1.75781 29.3299C1.75781 25.8813 13.9273 22.8775 31.8933 21.3206C32.0227 21.3095 32.153 21.3254 32.276 21.3673C32.3989 21.4092 32.5118 21.4762 32.6075 21.5641C32.7032 21.652 32.7796 21.7587 32.8318 21.8777C32.884 21.9966 32.911 22.1251 32.9109 22.255Z" fill="#F6EDDE"/>
<path d="M80.761 37.3337V83.7801C80.761 84.3191 80.3093 84.7462 79.771 84.7155C79.1225 84.6783 78.4689 84.643 77.8102 84.6095C75.4566 84.4902 73.0371 82.1772 70.5633 82.1064L54.484 66.1358L55.6477 62.447L80.761 37.3337ZM103.873 58.1158L100.43 86.7353C98.4553 86.4355 96.3471 86.1583 94.1203 85.9054C94.1203 85.9054 91.6552 84.2387 89.5125 84.055C89.2783 84.0352 89.06 83.9283 88.9009 83.7554C88.7417 83.5824 88.6532 83.356 88.6528 83.121L88.3268 41.9502L96.9249 46.2423L103.873 58.1158Z" fill="#E6CEA7"/>
<path d="M118.242 29.3297C118.242 33.5086 106.233 38.4867 106.233 38.4867L103.873 58.1156L87.0891 41.332L88.1897 22.9003C88.1897 22.7704 88.2166 22.6419 88.2689 22.523C88.3211 22.404 88.3975 22.2972 88.4932 22.2094C88.5888 22.1215 88.7017 22.0545 88.8247 22.0126C88.9476 21.9707 89.078 21.9547 89.2074 21.9658C91.2936 22.1466 94.1206 21.9197 94.1206 21.9197C108.735 23.5809 118.242 26.2816 118.242 29.3297Z" fill="#F6EDDE"/>
<path d="M94.1204 48.3633V85.9052C92.154 85.6826 90.0915 85.4789 87.9493 85.2938C87.7149 85.2737 87.4966 85.1665 87.3374 84.9934C87.1782 84.8203 87.0896 84.5938 87.0891 84.3586V41.332L90.9031 42.1577L94.1204 48.3633Z" fill="#E1C494"/>
<path d="M94.1204 21.921V48.3632L87.0891 41.332V22.2538C87.0893 22.1241 87.1164 21.9958 87.1687 21.8771C87.221 21.7584 87.2974 21.6519 87.393 21.5642C87.4886 21.4765 87.6013 21.4096 87.7241 21.3678C87.8469 21.3259 87.9771 21.31 88.1063 21.321C90.1922 21.5015 92.2008 21.7031 94.1204 21.921Z" fill="#FBF7F0"/>
<path d="M77.8102 84.6095C75.4571 84.49 73.036 84.3939 70.5633 84.3236L56.69 76.1064L52.1675 65.9275L55.648 62.447L77.8102 84.6095Z" fill="#E1C494"/>
<path d="M70.5632 84.3232C67.1367 84.2225 63.607 84.1732 60 84.1732C56.8218 84.1732 53.7023 84.2131 50.6625 84.2904C48.6133 84.3413 46.6007 84.41 44.6296 84.4943C44.6296 84.4943 42.6213 83.401 41.1796 83.4825C41.0523 83.4898 40.9249 83.4711 40.8051 83.4274C40.6853 83.3836 40.5757 83.3159 40.483 83.2283C40.3903 83.1407 40.3165 83.0351 40.2661 82.918C40.2157 82.8009 40.1898 82.6747 40.1899 82.5471L40.1015 57.665L39.239 52.999L52.1671 65.9271L70.5632 84.3232Z" fill="#ECD8B9"/>
<path d="M62.4769 39.4443C62.4769 39.906 62.4314 40.3572 62.3437 40.7929C62.3437 40.7929 61.7669 41.1323 61.6861 41.38C60.7983 44.1009 58.8136 45.516 55.7965 45.516C52.0427 45.516 49.5759 43.1981 49.5759 39.4441C49.5759 36.7033 50.846 34.5307 53.1825 33.4553C53.4462 33.3339 53.7047 32.9388 53.7047 32.9388C54.3431 32.7403 54.9762 32.6472 55.68 32.6472C59.434 32.6475 62.4769 35.6903 62.4769 39.4443Z" fill="#ECD8B9"/>
<path d="M62.3438 40.7931C61.718 43.9009 58.9712 46.2423 55.6805 46.2423C51.9259 46.2423 48.8837 43.1978 48.8837 39.4455C48.8837 36.3775 50.9134 33.7853 53.7048 32.9392C53.618 33.3751 53.5712 33.8275 53.5712 34.2892C53.5712 38.0416 56.6134 41.0861 60.368 41.0861C61.0548 41.0861 61.7204 40.983 62.3438 40.7931Z" fill="#E6CEA7"/>
<path d="M118.242 29.3281V93.3125C118.242 95.8311 111.747 98.1137 101.24 99.7665C101.14 99.7821 101.038 99.7757 100.94 99.748C100.842 99.7202 100.752 99.6716 100.675 99.6056C100.598 99.5395 100.536 99.4576 100.494 99.3654C100.451 99.2733 100.43 99.173 100.43 99.0716V36.5101C100.43 36.3421 100.491 36.1799 100.6 36.0525C100.71 35.9252 100.861 35.8411 101.027 35.8154C111.66 34.16 118.242 31.8638 118.242 29.3281ZM19.8047 36.5462V99.1079C19.8047 99.2092 19.7828 99.3093 19.7405 99.4014C19.6983 99.4935 19.6366 99.5753 19.5597 99.6414C19.4829 99.7074 19.3926 99.756 19.2952 99.7839C19.1978 99.8118 19.0956 99.8184 18.9954 99.803C15.0038 99.1822 11.5446 98.4613 8.82634 97.681C4.00454 94.8146 3.0429 93.8394 3.0429 92.2531L2.22681 31.5697C2.22681 33.147 4.17915 33.5213 8.78907 33.6845C11.5667 34.4867 15.0872 35.217 19.2061 35.8512C19.3723 35.8767 19.524 35.9607 19.6337 36.0882C19.7435 36.2156 19.8041 36.378 19.8047 36.5462Z" fill="#FBF7F0"/>
<path d="M8.78906 33.6842L8.82633 97.6807C4.34273 96.3847 1.75781 94.8889 1.75781 93.3115V29.3271C1.75781 30.9045 4.30547 32.3904 8.78906 33.6842Z" fill="#ECD8B9"/>
<path d="M44.6296 20.5103V58.3897L40.9839 59.0767L39.239 52.9991V21.6725C39.239 21.1756 39.6257 20.7631 40.1203 20.735C41.5968 20.6506 43.1015 20.5759 44.6296 20.5103Z" fill="#FBF7F0"/>
<path d="M44.6296 58.3896V84.4946C43.139 84.5578 41.6695 84.6328 40.2281 84.7123C40.1008 84.7195 39.9735 84.7007 39.8537 84.657C39.734 84.6133 39.6245 84.5455 39.5319 84.458C39.4393 84.3704 39.3656 84.2649 39.3152 84.1478C39.2648 84.0307 39.2389 83.9046 39.239 83.7771V52.999L44.6296 58.3896Z" fill="#E6CEA7"/>
<path d="M87.5993 41.8431L99.7402 53.9841M80.0907 38.0061L71.2266 46.8678M65.3602 52.7342L52.4602 65.6342M39.8857 53.645L70.4262 84.1852M20.0841 60.3238L32.4814 47.9265" stroke="#CD9B4B" stroke-width="3.51562" stroke-miterlimit="10" stroke-linecap="round" stroke-linejoin="round"/>
<path d="M55.6799 46.2412C59.4337 46.2412 62.4768 43.1981 62.4768 39.4443C62.4768 35.6905 59.4337 32.6475 55.6799 32.6475C51.9261 32.6475 48.8831 35.6905 48.8831 39.4443C48.8831 43.1981 51.9261 46.2412 55.6799 46.2412Z" stroke="#CD9B4B" stroke-width="3.51562" stroke-miterlimit="10" stroke-linecap="round" stroke-linejoin="round"/>
<path d="M1.75781 29.3291C1.75781 25.8158 14.3883 22.7643 32.9109 21.2338V85.2182C28.1062 85.6166 23.6977 86.1158 19.8047 86.6994M108.436 24.253C114.63 25.7038 118.242 27.4499 118.242 29.3296M100.226 22.7179C96.3258 22.1319 91.9078 21.6327 87.0891 21.2343V85.221C91.9898 85.6241 96.4781 86.135 100.43 86.735M80.7609 20.7861V84.7729C74.3133 84.3838 67.3148 84.1729 60 84.1729C52.6852 84.1729 45.6867 84.3838 39.2391 84.7705V20.7861C45.6891 20.3994 52.6875 20.1885 60 20.1885C67.3125 20.1885 74.3109 20.3994 80.7609 20.7861Z" stroke="#CD9B4B" stroke-width="3.51562" stroke-miterlimit="10" stroke-linecap="round" stroke-linejoin="round"/>
<path d="M118.242 65.6345V93.3125C118.242 95.8311 111.747 98.1137 101.24 99.7665C101.14 99.7821 101.037 99.7757 100.94 99.748C100.842 99.7202 100.752 99.6716 100.675 99.6056C100.598 99.5395 100.536 99.4576 100.494 99.3654C100.451 99.2733 100.43 99.173 100.43 99.0716V36.5101C100.43 36.3421 100.491 36.1799 100.6 36.0525C100.71 35.9252 100.861 35.8411 101.027 35.8154C111.66 34.16 118.242 31.8638 118.242 29.3281V57.1501M19.8047 82.5509V99.1081C19.8047 99.2094 19.7828 99.3096 19.7405 99.4017C19.6983 99.4937 19.6366 99.5756 19.5597 99.6416C19.4829 99.7076 19.3926 99.7562 19.2952 99.7842C19.1978 99.8121 19.0955 99.8186 18.9954 99.8033C8.35078 98.1474 1.75781 95.8503 1.75781 93.3125V29.3281C1.75781 31.8826 8.43773 34.1933 19.2061 35.8512C19.3723 35.8767 19.524 35.9607 19.6337 36.0882C19.7435 36.2156 19.8041 36.378 19.8047 36.5462V74.3478" stroke="#CD9B4B" stroke-width="3.51562" stroke-miterlimit="10" stroke-linecap="round" stroke-linejoin="round"/>
</svg>