<svg width="80" height="80" viewBox="0 0 80 80" fill="none" xmlns="http://www.w3.org/2000/svg">
<path d="M60.0003 36.6667C60.0003 33.47 57.7337 30.7967 54.7303 30.1533C55.9303 28.15 56.667 25.8333 56.667 23.3333C56.667 15.98 50.687 10 43.3337 10C38.277 10 33.9303 12.8567 31.667 17.0133C29.4037 12.8567 25.057 10 20.0003 10C12.647 10 6.66699 15.98 6.66699 23.3333C6.66699 26.34 7.70699 29.09 9.39033 31.32C8.54895 31.9353 7.86407 32.7398 7.39099 33.6685C6.91792 34.5973 6.66991 35.6243 6.66699 36.6667V63.3333C6.66699 67.01 9.65699 70 13.3337 70H53.3337C57.0103 70 60.0003 67.01 60.0003 63.3333V54.54L73.3337 61.2067V37.8733L60.0003 44.54V36.6667ZM43.3337 16.6667C47.0103 16.6667 50.0003 19.6567 50.0003 23.3333C50.0003 27.01 47.0103 30 43.3337 30C39.657 30 36.667 27.01 36.667 23.3333C36.667 19.6567 39.657 16.6667 43.3337 16.6667ZM20.0003 16.6667C23.677 16.6667 26.667 19.6567 26.667 23.3333C26.667 27.01 23.677 30 20.0003 30C16.3237 30 13.3337 27.01 13.3337 23.3333C13.3337 19.6567 16.3237 16.6667 20.0003 16.6667ZM13.3337 63.3333V36.6667H53.3337L53.3403 63.3333H13.3337Z" fill="#CD9B4B"/>
</svg>
