<svg width="25" height="24" viewBox="0 0 25 24" fill="none" xmlns="http://www.w3.org/2000/svg">
<path d="M8.5 13V4.5C8.5 4.10218 8.65804 3.72064 8.93934 3.43934C9.22064 3.15804 9.60218 3 10 3C10.3978 3 10.7794 3.15804 11.0607 3.43934C11.342 3.72064 11.5 4.10218 11.5 4.5V12M11.5 11.5V9.5C11.5 9.10218 11.658 8.72064 11.9393 8.43934C12.2206 8.15804 12.6022 8 13 8C13.3978 8 13.7794 8.15804 14.0607 8.43934C14.342 8.72064 14.5 9.10218 14.5 9.5V12M14.5 10.5C14.5 10.1022 14.658 9.72064 14.9393 9.43934C15.2206 9.15804 15.6022 9 16 9C16.3978 9 16.7794 9.15804 17.0607 9.43934C17.342 9.72064 17.5 10.1022 17.5 10.5V12" stroke="white" stroke-linecap="round" stroke-linejoin="round"/>
<path d="M17.5 11.5C17.5 11.1022 17.6581 10.7207 17.9394 10.4393C18.2207 10.158 18.6022 10 19 10C19.3978 10 19.7794 10.158 20.0607 10.4393C20.342 10.7207 20.5 11.1022 20.5 11.5V16C20.5 17.5913 19.8679 19.1174 18.7427 20.2426C17.6174 21.3679 16.0913 22 14.5 22H12.5H12.708C11.7144 22.0002 10.7362 21.7536 9.8614 21.2823C8.9866 20.811 8.24253 20.1299 7.69602 19.3L7.50002 19C7.18802 18.5213 6.09268 16.612 4.21402 13.272C4.02247 12.9315 3.9713 12.5298 4.0714 12.1522C4.1715 11.7745 4.41496 11.4509 4.75002 11.25C5.10705 11.0364 5.52512 10.9479 5.93808 10.9987C6.35103 11.0494 6.73528 11.2363 7.03002 11.53L8.50002 13M3.04102 5.59401C3.80849 5.03306 4.63306 4.55474 5.50102 4.16701M14.5 3.45801C15.8025 3.80688 17.0448 4.35034 18.185 5.07001" stroke="white" stroke-linecap="round" stroke-linejoin="round"/>
</svg>
